# xmcd
#
# Track frame offsets:
#	150
#	25538
#	42475
#	66235
#	80462
#	108060
#	122279
#	143660
#	169359
#	189959
#	208218
#	231526
#	249583
#	269803
#	286187
#	304197
#	321489
#	339612
#
# Disc length: 4743 seconds
#
# Revision: 13
# Processed by: cddbd v1.5.2PL0 Copyright (c) Steve Scherf et al.
# Submitted via: EasyCDDAExtractor 15.3.0.1
#
DISCID=0d128512
DTITLE=Madonna - Celebration
DYEAR=2009
DGENRE=Pop
TTITLE0=Hung Up
TTITLE1=Music
TTITLE2=Vogue
TTITLE3=4 Minutes (Featuring Justin Timberlake And Timbaland)
TTITLE4=Holiday
TTITLE5=Like A Virgin
TTITLE6=Into The Groove
TTITLE7=Like A Prayer
TTITLE8=Ray Of Light
TTITLE9=La Isla Bonita
TTITLE10=Frozen
TTITLE11=Material Girl
TTITLE12=Papa Don't Preach
TTITLE13=Lucky Star
TTITLE14=Express Yourself
TTITLE15=Open Your Heart
TTITLE16=Dress You Up
TTITLE17=Celebration
EXTD=
EXTT0=
EXTT1=
EXTT2=
EXTT3=
EXTT4=
EXTT5=
EXTT6=
EXTT7=
EXTT8=
EXTT9=
EXTT10=
EXTT11=
EXTT12=
EXTT13=
EXTT14=
EXTT15=
EXTT16=
EXTT17=
PLAYORDER=
